HIERARCHY
ROOT Hips
{
	OFFSET 0.00000 0.00000 0.00000
	CHANNELS 6 Xposition Yposition Zposition Zrotation Yrotation Xrotation 
	JOINT LHipJoint
	{
		OFFSET 0 0 0
		CHANNELS 3 Zrotation Yrotation Xrotation
		JOINT LeftUpLeg
		{
			OFFSET 1.48831 -1.59570 0.95625
			CHANNELS 3 Zrotation Yrotation Xrotation
			JOINT LeftLeg
			{
				OFFSET 2.20856 -6.06797 0.00000
				CHANNELS 3 Zrotation Yrotation Xrotation
				JOINT LeftFoot
				{
					OFFSET 2.62924 -7.22379 0.00000
					CHANNELS 3 Zrotation Yrotation Xrotation
					JOINT LeftToeBase
					{
						OFFSET 0.16802 -0.46163 2.41673
						CHANNELS 3 Zrotation Yrotation Xrotation
						End Site
						{
							OFFSET 0.00000 -0.00000 1.23760
						}
					}
				}
			}
		}
	}
	JOINT RHipJoint
	{
		OFFSET 0 0 0
		CHANNELS 3 Zrotation Yrotation Xrotation
		JOINT RightUpLeg
		{
			OFFSET -1.56796 -1.59570 0.95625
			CHANNELS 3 Zrotation Yrotation Xrotation
			JOINT RightLeg
			{
				OFFSET -2.29239 -6.29829 0.00000
				CHANNELS 3 Zrotation Yrotation Xrotation
				JOINT RightFoot
				{
					OFFSET -2.66963 -7.33475 0.00000
					CHANNELS 3 Zrotation Yrotation Xrotation
					JOINT RightToeBase
					{
						OFFSET -0.18185 -0.49964 2.34359
						CHANNELS 3 Zrotation Yrotation Xrotation
						End Site
						{
							OFFSET -0.00000 -0.00000 1.20477
						}
					}
				}
			}
		}
	}
	JOINT LowerBack
	{
		OFFSET 0 0 0
		CHANNELS 3 Zrotation Yrotation Xrotation
		JOINT Spine
		{
			OFFSET 0.03505 2.15832 -0.34324
			CHANNELS 3 Zrotation Yrotation Xrotation
			JOINT Spine1
			{
				OFFSET -0.01089 2.17963 0.04689
				CHANNELS 3 Zrotation Yrotation Xrotation
				JOINT Neck
				{
					OFFSET 0 0 0
					CHANNELS 3 Zrotation Yrotation Xrotation
					JOINT Neck1
					{
						OFFSET 0.04686 1.69404 0.22159
						CHANNELS 3 Zrotation Yrotation Xrotation
						JOINT Head
						{
							OFFSET 0.00265 1.69305 -0.01513
							CHANNELS 3 Zrotation Yrotation Xrotation
							End Site
							{
								OFFSET -0.00415 1.80215 -0.03034
							}
						}
					}
				}
				JOINT LeftShoulder
				{
					OFFSET 0 0 0
					CHANNELS 3 Zrotation Yrotation Xrotation
					JOINT LeftArm
					{
						OFFSET 3.67184 1.11724 -0.19002
						CHANNELS 3 Zrotation Yrotation Xrotation
						JOINT LeftForeArm
						{
							OFFSET 5.17714 -0.00000 -0.00000
							CHANNELS 3 Zrotation Yrotation Xrotation
							JOINT LeftHand
							{
								OFFSET 3.43679 -0.00000 -0.00000
								CHANNELS 3 Zrotation Yrotation Xrotation
								JOINT LeftFingerBase
								{
									OFFSET 0 0 0
									CHANNELS 3 Zrotation Yrotation Xrotation
									JOINT LeftHandIndex1
									{
										OFFSET 0.57312 -0.00000 -0.00000
										CHANNELS 3 Zrotation Yrotation Xrotation
										End Site
										{
											OFFSET 0.46206 -0.00000 -0.00000
										}
									}
								}
								JOINT LThumb
								{
									OFFSET 0 0 0
									CHANNELS 3 Zrotation Yrotation Xrotation
									End Site
									{
										OFFSET 0.46912 -0.00000 0.46912
									}
								}
							}
						}
					}
				}
				JOINT RightShoulder
				{
					OFFSET 0 0 0
					CHANNELS 3 Zrotation Yrotation Xrotation
					JOINT RightArm
					{
						OFFSET -3.59596 0.95831 -0.26050
						CHANNELS 3 Zrotation Yrotation Xrotation
						JOINT RightForeArm
						{
							OFFSET -5.23908 -0.00000 -0.00000
							CHANNELS 3 Zrotation Yrotation Xrotation
							JOINT RightHand
							{
								OFFSET -3.46485 -0.00000 -0.00000
								CHANNELS 3 Zrotation Yrotation Xrotation
								JOINT RightFingerBase
								{
									OFFSET 0 0 0
									CHANNELS 3 Zrotation Yrotation Xrotation
									JOINT RightHandIndex1
									{
										OFFSET -0.60875 -0.00000 -0.00000
										CHANNELS 3 Zrotation Yrotation Xrotation
										End Site
										{
											OFFSET -0.49079 -0.00000 -0.00000
										}
									}
								}
								JOINT RThumb
								{
									OFFSET 0 0 0
									CHANNELS 3 Zrotation Yrotation Xrotation
									End Site
									{
										OFFSET -0.49829 -0.00000 0.49829
									}
								}
							}
						}
					}
				}
			}
		}
	}
}
MOTION
Frames: 7
Frame Time: .0083333
9.1288 12.0229 -6.0421 9.1109 -10.9207 22.6334 0.0000 0.0000 0.0000 -15.8828 -24.8255 -87.5580 21.8115 19.9211 95.3032 2.3918 0.2693 -29.3970 0.2746 -3.3704 -9.3116 0.0000 0.0000 0.0000 2.2510 4.6781 -97.8292 -25.2689 -19.3210 105.5745 -3.2295 -2.7977 -35.0620 -0.0509 1.4564 -4.0055 8.8775 -1.8605 54.1102 2.5881 2.6194 12.1907 -2.2507 1.1447 -6.9874 -0.7106 -10.8556 6.3989 -1.0758 -16.0969 -21.7153 1.1655 -7.7613 -7.8000 -0.0000 -0.0000 0.0000 -48.1862 -48.7597 8.5471 144.5277 -45.1465 -104.8528 -0.0000 0.0000 -3.9577 57.5346 -19.0740 -27.1869 -7.1250 0.0000 -0.0000 17.6304 -1.4836 -18.9945 -0.0000 -0.0000 0.0000 23.3780 51.7927 -20.9683 -23.6509 34.7929 -7.5064 0.0000 0.0000 27.5888 -60.6427 5.6573 -9.9404 7.1250 -0.0000 -0.0000 -23.5408 -18.9340 -16.0350
9.1290 12.0347 -6.0341 9.0095 -10.8900 22.4619 0.0000 0.0000 0.0000 -15.8848 -24.7636 -87.2246 21.7554 19.9260 95.1385 2.3880 0.2675 -29.3728 0.2751 -3.3737 -9.3211 0.0000 0.0000 0.0000 2.3048 4.8031 -97.4511 -25.2088 -19.3367 105.3930 -3.2253 -2.9167 -35.0853 -0.0516 1.4657 -4.0311 8.8424 -1.8451 53.7372 2.5822 2.5773 12.2225 -2.2338 1.1302 -6.9227 -0.7795 -10.8352 6.4465 -1.0923 -16.0748 -21.6816 1.1698 -7.7418 -7.7929 0.0000 -0.0000 0.0000 -47.9886 -48.7437 8.4539 144.2999 -45.3056 -104.6911 -0.0000 0.0000 -4.0501 57.5244 -19.0252 -27.1203 -7.1250 0.0000 -0.0000 17.6387 -1.4068 -18.9806 0.0000 -0.0000 0.0000 23.5339 51.5942 -20.4978 -23.9282 35.0882 -7.6652 0.0000 0.0000 27.4711 -60.4932 5.6664 -9.8966 7.1250 -0.0000 -0.0000 -23.4480 -18.9635 -15.9421
9.1322 12.0741 -6.0314 8.9104 -10.8428 22.3033 0.0000 0.0000 0.0000 -15.9558 -24.7004 -86.6880 21.6225 19.9368 94.7486 2.3816 0.2472 -29.3267 0.2732 -3.3622 -9.2888 0.0000 0.0000 0.0000 2.4281 4.8911 -96.8890 -25.0748 -19.3710 104.9887 -3.2182 -3.0192 -35.0871 -0.0528 1.4835 -4.0801 8.8227 -1.8451 53.3134 2.5741 2.5204 12.2589 -2.2211 1.1104 -6.8460 -0.8424 -10.8132 6.4959 -1.1144 -16.0511 -21.6475 1.1715 -7.7214 -7.7869 0.0000 0.0000 0.0000 -47.8020 -48.7226 8.3649 144.0789 -45.4587 -104.5338 -0.0000 0.0000 -4.1577 57.5172 -18.9721 -27.0513 -7.1250 0.0000 -0.0000 17.6496 -1.3255 -18.9685 0.0000 0.0000 0.0000 23.6693 51.4060 -20.0632 -24.2116 35.3873 -7.8288 0.0000 0.0000 27.3737 -60.3433 5.6664 -9.8377 7.1250 -0.0000 -0.0000 -23.3581 -19.0090 -15.8426
9.1368 12.1146 -6.0283 8.8156 -10.7729 22.1630 0.0000 0.0000 0.0000 -16.0255 -24.6661 -86.1591 21.4821 19.9473 94.3371 2.3728 0.2261 -29.2648 0.2692 -3.3375 -9.2199 0.0000 0.0000 0.0000 2.5518 4.9504 -96.3415 -24.9360 -19.4056 104.5705 -3.2091 -3.1239 -35.0795 -0.0545 1.5066 -4.1440 8.8208 -1.8609 52.8305 2.5680 2.4491 12.2996 -2.2094 1.0853 -6.7559 -0.9007 -10.7911 6.5473 -1.1420 -16.0280 -21.6137 1.1711 -7.7009 -7.7823 -0.0000 -0.0000 0.0000 -47.6384 -48.6983 8.2902 143.8640 -45.6065 -104.3804 -0.0000 0.0000 -4.2743 57.5109 -18.9182 -26.9822 -7.1250 0.0000 -0.0000 17.6614 -1.2437 -18.9571 -0.0000 -0.0000 0.0000 23.7755 51.2254 -19.6634 -24.4941 35.6824 -7.9929 0.0000 0.0000 27.3006 -60.1928 5.6567 -9.7626 7.1250 -0.0000 -0.0000 -23.2714 -19.0717 -15.7362
9.1425 12.1560 -6.0249 8.7250 -10.6778 22.0426 0.0000 0.0000 0.0000 -16.0910 -24.6612 -85.6438 21.3272 19.9577 93.8830 2.3574 0.2093 -29.1638 0.2635 -3.3026 -9.1224 0.0000 0.0000 0.0000 2.6748 4.9794 -95.8179 -24.7880 -19.4412 104.1257 -3.1946 -3.2353 -35.0465 -0.0562 1.5303 -4.2093 8.8331 -1.8880 52.2879 2.5702 2.3673 12.3438 -2.1922 1.0560 -6.6528 -0.9570 -10.7708 6.6004 -1.1738 -16.0082 -21.5802 1.1695 -7.6818 -7.7787 0.0000 0.0000 0.0000 -47.5096 -48.6731 8.2391 143.6550 -45.7490 -104.2309 -0.0000 0.0000 -4.3926 57.5043 -18.8700 -26.9194 -7.1250 0.0000 -0.0000 17.6714 -1.1697 -18.9459 0.0000 0.0000 0.0000 23.8453 51.0505 -19.3003 -24.7697 35.9676 -8.1542 0.0000 0.0000 27.2528 -60.0425 5.6388 -9.6747 7.1250 -0.0000 -0.0000 -23.1876 -19.1485 -15.6246
9.1488 12.1984 -6.0210 8.6354 -10.5623 21.9379 0.0000 0.0000 0.0000 -16.1534 -24.6744 -85.1352 21.1663 19.9674 93.4118 2.3402 0.1892 -29.0505 0.2569 -3.2613 -9.0072 0.0000 0.0000 0.0000 2.8064 4.9806 -95.3072 -24.6366 -19.4766 103.6712 -3.1797 -3.3384 -35.0087 -0.0579 1.5521 -4.2695 8.8509 -1.9176 51.6958 2.5846 2.2816 12.3898 -2.1639 1.0251 -6.5395 -1.0128 -10.7538 6.6545 -1.2088 -15.9938 -21.5463 1.1675 -7.6651 -7.7755 0.0000 0.0000 0.0000 -47.4227 -48.6484 8.2174 143.4522 -45.8862 -104.0855 -0.0000 0.0000 -4.5039 57.4952 -18.8309 -26.8651 -7.1250 0.0000 -0.0000 17.6774 -1.1076 -18.9337 0.0000 0.0000 0.0000 23.8768 50.8804 -18.9763 -25.0332 36.2379 -8.3095 0.0000 0.0000 27.2289 -59.8950 5.6172 -9.5823 7.1250 -0.0000 -0.0000 -23.1067 -19.2304 -15.5128
9.1554 12.2420 -6.0168 8.5430 -10.4356 21.8405 0.0000 0.0000 0.0000 -16.2160 -24.6881 -84.6220 20.9995 19.9760 92.9233 2.3222 0.1628 -28.9294 0.2500 -3.2170 -8.8836 0.0000 0.0000 0.0000 2.9590 4.9541 -94.7979 -24.4803 -19.5118 103.2027 -3.1645 -3.4262 -34.9631 -0.0594 1.5722 -4.3248 8.8644 -1.9419 51.0730 2.6114 2.1980 12.4348 -2.1221 0.9944 -6.4209 -1.0678 -10.7411 6.7076 -1.2454 -15.9860 -21.5107 1.1652 -7.6515 -7.7719 0.0000 0.0000 0.0000 -47.3785 -48.6230 8.2266 143.2557 -46.0183 -103.9442 -0.0000 0.0000 -4.6007 57.4824 -18.8033 -26.8211 -7.1250 0.0000 -0.0000 17.6781 -1.0599 -18.9197 0.0000 0.0000 0.0000 23.8744 50.7168 -18.6919 -25.2811 36.4899 -8.4565 0.0000 0.0000 27.2249 -59.7517 5.5977 -9.4960 7.1250 -0.0000 -0.0000 -23.0273 -19.3068 -15.4059
